<svg width="26" height="26" viewBox="0 0 26 26" fill="none" xmlns="http://www.w3.org/2000/svg">
<path d="M13.0001 20.7997C17.3079 20.7997 20.8001 17.3075 20.8001 12.9997C20.8001 8.69189 17.3079 5.19971 13.0001 5.19971C8.69225 5.19971 5.20007 8.69189 5.20007 12.9997C5.20007 17.3075 8.69225 20.7997 13.0001 20.7997Z" fill="white"/>
<path d="M13.8666 0H12.1333V3.46667H13.8666V0Z" fill="white"/>
<path d="M13.8666 22.5332H12.1333V25.9999H13.8666V22.5332Z" fill="white"/>
<path d="M26 12.1334H22.5333V13.8667H26V12.1334Z" fill="white"/>
<path d="M3.46667 12.1334H0V13.8667H3.46667V12.1334Z" fill="white"/>
<path d="M20.3532 19.1279L19.1275 20.3536L21.5788 22.8049L22.8044 21.5792L20.3532 19.1279Z" fill="white"/>
<path d="M4.42085 3.19489L3.19521 4.42053L5.64649 6.87181L6.87213 5.64617L4.42085 3.19489Z" fill="white"/>
<path d="M5.64598 19.1276L3.1947 21.5789L4.42034 22.8045L6.87162 20.3532L5.64598 19.1276Z" fill="white"/>
<path d="M21.5791 3.19496L19.1278 5.64624L20.3535 6.87188L22.8047 4.4206L21.5791 3.19496Z" fill="white"/>
</svg>
