<svg width="20" height="20" viewBox="0 0 20 20" fill="none" xmlns="http://www.w3.org/2000/svg">
<path d="M7.31058 13.5498C9.11017 13.4338 10.918 13.4338 12.7176 13.5498C13.6976 13.5955 14.6729 13.6936 15.6374 13.8434C17.7245 14.1815 19.0871 14.7331 19.6711 15.6228C20.1096 16.3171 20.1096 17.1437 19.6711 17.8381C19.0871 18.7278 17.7786 19.3149 15.6158 19.6174C14.652 19.7729 13.6765 19.874 12.696 19.9199C11.7876 20 10.8792 20 9.96003 20H8.30547C7.95942 19.9644 7.62419 19.9466 7.29977 19.9466C6.31922 19.9063 5.34346 19.8082 4.37997 19.653C2.29285 19.3327 0.930278 18.7633 0.346319 17.8737C0.120889 17.529 0.0020426 17.144 0.000130272 16.7527C-0.00443039 16.3589 0.110822 15.9705 0.335505 15.6228C0.90865 14.7331 2.27122 14.1548 4.37997 13.8434C5.3477 13.6915 6.3268 13.5934 7.31058 13.5498ZM10.0033 0C13.6286 0 16.5674 2.41782 16.5674 5.40036C16.5674 8.38289 13.6286 10.8007 10.0033 10.8007C6.37801 10.8007 3.43914 8.38289 3.43914 5.40036C3.43914 2.41782 6.37801 0 10.0033 0Z" fill="#D3CECE"/>
</svg>
